<svg width="144" height="144" viewBox="0 0 144 144" fill="none" xmlns="http://www.w3.org/2000/svg">
<rect width="144" height="144" rx="15" fill="black"/>
<g clip-path="url(#clip0_7_2)">
<path d="M57.2966 18.0155C61.5622 18.0155 65.8278 17.9819 70.0934 18.0233C76.9649 18.0932 83.3839 19.7557 89.0843 23.7229C95.8084 28.4022 100.035 34.8269 101.447 42.8596C103.114 52.3503 101.036 61.059 94.6554 68.4392C89.7306 74.1336 83.5158 77.6812 76.0084 78.875C72.9707 79.3567 69.7987 79.6156 66.9731 80.7136C57.3871 84.4399 55.0682 96.6574 62.3223 103.963C65.1764 106.837 68.5061 108.417 72.5597 108.378C73.7282 108.367 74.222 108.776 74.2194 110.032C74.2116 114.259 74.328 118.487 74.3616 122.713C74.3797 124.863 74.2246 125.044 72.1047 124.995C63.845 124.801 56.9632 121.481 51.1982 115.66C46.5887 111.006 43.3986 105.558 42.4627 99.0191C40.9168 88.1948 43.6054 78.6938 51.6997 71.0235C56.8468 66.1474 63.103 63.8349 70.0288 63.04C73.63 62.6256 77.1536 62.0404 80.2067 59.7797C88.2648 53.816 88.239 41.425 78.5212 36.1191C76.1247 34.8113 73.5317 34.2986 70.8147 34.3115C67.1954 34.3271 63.5761 34.3115 59.9568 34.3219C58.0955 34.3271 57.8654 34.5653 57.8499 36.3961C57.824 39.2239 57.824 39.1928 54.9208 39.2317C51.3067 39.2809 47.69 39.4052 44.0759 39.4699C42.4627 39.4984 42.1034 39.1385 42.0931 37.507C42.0595 31.463 42.0698 25.4216 42 19.3828C41.9871 18.2331 42.4912 17.9974 43.4658 18C48.0752 18.0181 52.6872 18.0078 57.2966 18.0078V18.0155Z" fill="white"/>
<path d="M85.8089 116.563C85.8089 109.535 85.827 102.507 85.7985 95.4792C85.7908 93.6018 85.8528 91.6855 85.509 89.8573C85.0385 87.3584 83.3658 85.4991 81.5614 83.777C80.1964 82.4745 80.3101 82.0213 82.0913 81.5241C86.0105 80.4313 89.4695 78.4711 92.6855 76.0317C94.9217 74.3356 94.8881 74.3459 96.4625 76.6869C100.738 83.0364 102.651 90.0101 101.78 97.6311C101.072 103.823 98.5513 109.287 94.49 114.01C92.427 116.41 90.0176 118.42 87.2592 119.989C86.0958 120.652 85.8838 120.515 85.8011 119.145" fill="white"/>
<path d="M42.3826 74.5738C42.3386 74.0352 42.2559 73.4965 42.2533 72.9579C42.2119 66.7534 42.1809 60.5488 42.1473 54.3443C42.1473 54.0853 42.1499 53.8264 42.1473 53.5674C42.093 50.7862 42.0853 50.6179 44.8178 50.4988C48.6827 50.3305 52.5579 50.4263 56.4306 50.4418C57.3871 50.4444 58.0205 50.8898 58.2144 51.9386C58.6642 54.3779 59.8715 56.4288 61.5338 58.2519C62.8832 59.7305 62.8031 60.1008 60.9392 60.6964C56.0997 62.2424 51.8677 64.8034 48.2846 68.3744C46.6482 70.0032 45.2702 71.891 43.7682 73.6571C43.4528 74.0274 43.109 74.3744 42.7781 74.7343C42.6488 74.68 42.517 74.6282 42.3877 74.5738H42.3826Z" fill="white"/>
</g>
<defs>
<clipPath id="clip0_7_2">
<rect width="60" height="107" fill="white" transform="translate(42 18)"/>
</clipPath>
</defs>
</svg>
