<?xml version="1.0" encoding="UTF-8"?>
<svg id="Calque_1" data-name="Calque 1" xmlns="http://www.w3.org/2000/svg" viewBox="0 0 232.09 413.2">
  <defs>
    <style>
      .cls-1 {
        stroke-width: 0px;
      }
    </style>
  </defs>
  <path class="cls-1" d="m59.17.06c16.5,0,33-.13,49.5.03,26.58.27,51.41,6.69,73.46,22.01,26.01,18.07,42.36,42.88,47.82,73.9,6.45,36.65-1.59,70.28-26.27,98.78-19.05,21.99-43.09,35.69-72.13,40.3-11.75,1.86-24.02,2.86-34.95,7.1-37.08,14.39-46.05,61.57-17.99,89.78,11.04,11.1,23.92,17.2,39.6,17.05,4.52-.04,6.43,1.54,6.42,6.39-.03,16.32.42,32.65.55,48.97.07,8.3-.53,9-8.73,8.81-31.95-.75-58.57-13.57-80.87-36.05-17.83-17.97-30.17-39.01-33.79-64.26-5.98-41.8,4.42-78.49,35.73-108.11,19.91-18.83,44.11-27.76,70.9-30.83,13.93-1.6,27.56-3.86,39.37-12.59,31.17-23.03,31.07-70.88-6.52-91.37-9.27-5.05-19.3-7.03-29.81-6.98-14,.06-28,0-42,.04-7.2.02-8.09.94-8.15,8.01-.1,10.92-.1,10.8-11.33,10.95-13.98.19-27.97.67-41.95.92-6.24.11-7.63-1.28-7.67-7.58C.23,51.99.27,28.66,0,5.34-.05.9,1.9-.01,5.67,0c17.83.07,35.67.03,53.5.03v.03Z"/>
  <path class="cls-1" d="m169.46,380.62c0-27.14.07-54.28-.04-81.42-.03-7.25.21-14.65-1.12-21.71-1.82-9.65-8.29-16.83-15.27-23.48-5.28-5.03-4.84-6.78,2.05-8.7,15.16-4.22,28.54-11.79,40.98-21.21,8.65-6.55,8.52-6.51,14.61,2.53,16.54,24.52,23.94,51.45,20.57,80.88-2.74,23.91-12.49,45.01-28.2,63.25-7.98,9.27-17.3,17.03-27.97,23.09-4.5,2.56-5.32,2.03-5.64-3.26"/>
  <path class="cls-1" d="m1.48,218.47c-.17-2.08-.49-4.16-.5-6.24-.16-23.96-.28-47.92-.41-71.88,0-1,.01-2,0-3-.21-10.74-.24-11.39,10.33-11.85,14.95-.65,29.94-.28,44.92-.22,3.7.01,6.15,1.73,6.9,5.78,1.74,9.42,6.41,17.34,12.84,24.38,5.22,5.71,4.91,7.14-2.3,9.44-18.72,5.97-35.09,15.86-48.95,29.65-6.33,6.29-11.66,13.58-17.47,20.4-1.22,1.43-2.55,2.77-3.83,4.16-.5-.21-1.01-.41-1.51-.62Z"/>
</svg>